<svg width="107" height="92" fill="none" xmlns="http://www.w3.org/2000/svg"><path d="M35.676 49.284a25.103 25.103 0 0014.675 7.176V31.47H37.754v-6.296h12.597v-6.83a9.447 9.447 0 01-6.162-10.498A9.441 9.441 0 0153.5 0a9.45 9.45 0 019.311 7.846 9.438 9.438 0 01-6.162 10.498v6.83h12.597v6.295H56.649v24.99a25.103 25.103 0 0014.675-7.175l-4.472-4.47h17.824l-8.912 8.907a31.5 31.5 0 01-44.528 0l-8.912-8.907h17.824l-4.472 4.47zm17.824-36.7a3.15 3.15 0 003.15-3.147A3.147 3.147 0 0053.5 6.29a3.15 3.15 0 00-3.15 3.147 3.147 3.147 0 003.15 3.148zM7.972 91.955c-1.455 0-2.79-.345-4.008-1.034a7.707 7.707 0 01-2.895-2.855C.356 86.838 0 85.451 0 83.908c0-1.529.356-2.9 1.069-4.113a7.658 7.658 0 012.895-2.877c1.217-.69 2.553-1.034 4.008-1.034 1.47 0 2.806.344 4.009 1.034a7.499 7.499 0 012.872 2.877c.713 1.213 1.07 2.584 1.07 4.113 0 1.543-.357 2.93-1.07 4.158a7.544 7.544 0 01-2.872 2.855c-1.218.69-2.554 1.034-4.009 1.034zm0-2.81c.936 0 1.76-.21 2.472-.63.713-.434 1.27-1.048 1.67-1.842.401-.794.601-1.716.601-2.765 0-1.049-.2-1.963-.6-2.742-.402-.794-.958-1.401-1.671-1.82-.713-.42-1.537-.63-2.472-.63s-1.766.21-2.494.63c-.712.419-1.27 1.026-1.67 1.82-.4.779-.601 1.693-.601 2.742s.2 1.97.601 2.765c.4.794.958 1.408 1.67 1.843.728.42 1.559.63 2.494.63zM21.36 75.164v16.634h-3.118V75.164h3.117zm2.278 10.362c0-1.258.245-2.375.735-3.349.504-.974 1.187-1.723 2.048-2.248.861-.524 1.819-.786 2.873-.786.802 0 1.566.18 2.294.54.727.344 1.306.808 1.737 1.393v-5.912h3.162v16.634h-3.162v-1.844c-.386.615-.928 1.11-1.626 1.484-.698.375-1.507.562-2.427.562-1.04 0-1.99-.27-2.85-.81-.862-.539-1.545-1.296-2.05-2.27-.49-.989-.734-2.12-.734-3.394zm9.709.045c0-.764-.148-1.416-.445-1.955-.297-.555-.698-.974-1.203-1.259a3.13 3.13 0 00-1.626-.45c-.579 0-1.113.143-1.603.428-.49.284-.89.704-1.202 1.258-.297.54-.446 1.184-.446 1.933 0 .75.149 1.409.446 1.978.311.555.712.982 1.202 1.282.505.3 1.04.45 1.603.45.58 0 1.121-.143 1.626-.428.505-.3.906-.72 1.203-1.259.297-.554.445-1.213.445-1.978zm16.858 6.384c-1.084 0-2.064-.187-2.94-.562-.86-.375-1.544-.914-2.048-1.618-.505-.705-.765-1.536-.78-2.495h3.34c.045.644.268 1.153.669 1.528.415.375.98.562 1.692.562.727 0 1.299-.172 1.715-.517.415-.36.623-.824.623-1.394 0-.464-.14-.846-.423-1.146a2.83 2.83 0 00-1.069-.697c-.416-.18-.995-.374-1.737-.584-1.01-.3-1.833-.592-2.472-.877a4.59 4.59 0 01-1.625-1.326c-.446-.6-.668-1.393-.668-2.382 0-.93.23-1.739.69-2.428.46-.69 1.106-1.214 1.937-1.574.832-.374 1.782-.561 2.85-.561 1.604 0 2.903.397 3.898 1.19 1.01.78 1.566 1.874 1.67 3.283h-3.43a1.76 1.76 0 00-.69-1.327c-.415-.36-.972-.539-1.67-.539-.609 0-1.099.157-1.47.472-.356.315-.534.772-.534 1.371 0 .42.134.772.4 1.056.283.27.624.495 1.025.675.416.165.995.36 1.737.584 1.01.3 1.833.6 2.472.9.638.3 1.188.749 1.648 1.348.46.6.69 1.386.69 2.36a4.47 4.47 0 01-.646 2.338c-.43.72-1.061 1.296-1.892 1.73-.832.42-1.82.63-2.962.63zm7.401-6.429c0-1.258.245-2.375.735-3.349.505-.974 1.18-1.723 2.027-2.248.86-.524 1.818-.786 2.872-.786.92 0 1.722.187 2.405.562.698.374 1.255.846 1.67 1.416v-1.776h3.14v12.453h-3.14v-1.821c-.4.584-.957 1.071-1.67 1.46-.697.376-1.507.563-2.427.563-1.04 0-1.99-.27-2.85-.81-.847-.539-1.522-1.296-2.027-2.27-.49-.989-.735-2.12-.735-3.394zm9.71.045c0-.764-.149-1.416-.446-1.955a3.066 3.066 0 00-1.202-1.259 3.13 3.13 0 00-1.626-.45c-.579 0-1.113.143-1.603.428-.49.284-.891.704-1.203 1.258-.297.54-.445 1.184-.445 1.933 0 .75.148 1.409.445 1.978.312.555.713.982 1.203 1.282.504.3 1.039.45 1.603.45.579 0 1.12-.143 1.626-.428.504-.3.905-.72 1.202-1.259.297-.554.445-1.213.445-1.978zm7.765-7.709c-.549 0-1.01-.173-1.38-.517a1.811 1.811 0 01-.535-1.327c0-.524.178-.959.535-1.303.37-.36.831-.54 1.38-.54.55 0 1.002.18 1.359.54.37.344.556.779.556 1.303 0 .525-.185.967-.556 1.327-.356.344-.81.517-1.359.517zm1.537 1.483v12.453H73.5V79.345h3.118zm6.198-4.181v16.634h-3.118V75.164h3.118zM91.374 92c-1.188 0-2.256-.262-3.207-.787a5.875 5.875 0 01-2.249-2.27c-.534-.974-.801-2.098-.801-3.372 0-1.273.274-2.397.823-3.371a5.827 5.827 0 012.294-2.248c.965-.54 2.041-.81 3.23-.81 1.187 0 2.263.27 3.228.81a5.678 5.678 0 012.272 2.248c.564.974.846 2.098.846 3.371 0 1.274-.29 2.398-.869 3.372a5.943 5.943 0 01-2.316 2.27c-.965.525-2.048.787-3.25.787zm0-2.742c.564 0 1.091-.135 1.581-.405.505-.285.906-.704 1.203-1.259.297-.554.445-1.228.445-2.023 0-1.183-.312-2.09-.935-2.72a2.972 2.972 0 00-2.25-.966c-.89 0-1.64.322-2.249.967-.593.629-.89 1.535-.89 2.72 0 1.183.29 2.097.868 2.742.594.629 1.336.944 2.227.944zm11.84-7.98a4.437 4.437 0 011.559-1.55c.653-.375 1.396-.563 2.227-.563v3.304h-.824c-.98 0-1.722.233-2.227.697-.49.465-.735 1.274-.735 2.428v6.204h-3.117V79.345h3.117v1.933z" fill="#F2F2F2"/></svg>