<svg width="128" height="28" fill="none" xmlns="http://www.w3.org/2000/svg"><path d="M5.996 21.926a11.314 11.314 0 006.59 3.193V14H6.929v-2.8h5.657V8.16a4.233 4.233 0 01-2.245-1.835 4.166 4.166 0 01-.522-2.836A4.192 4.192 0 0111.265.99 4.268 4.268 0 0114 0c1 0 1.97.35 2.735.989A4.192 4.192 0 0118.18 3.49a4.166 4.166 0 01-.522 2.836 4.233 4.233 0 01-2.245 1.835V11.2h5.657V14h-5.657v11.12a11.314 11.314 0 006.59-3.193l-2.008-1.988H28L23.998 23.9A14.213 14.213 0 0114 28c-3.75 0-7.346-1.475-9.998-4.1L0 19.938h8.004l-2.008 1.988zM14 5.599c.375 0 .735-.148 1-.41a1.393 1.393 0 000-1.98 1.421 1.421 0 00-2 0 1.393 1.393 0 000 1.98c.265.262.625.41 1 .41zM42.855 21.96c-1.251 0-2.4-.31-3.447-.928a6.773 6.773 0 01-2.489-2.563c-.613-1.103-.919-2.347-.919-3.733 0-1.372.306-2.602.92-3.692.612-1.103 1.441-1.964 2.488-2.582a6.649 6.649 0 013.447-.929c1.263 0 2.412.31 3.446.929a6.596 6.596 0 012.47 2.582c.613 1.09.92 2.32.92 3.692 0 1.386-.307 2.63-.92 3.733a6.633 6.633 0 01-2.47 2.563 6.648 6.648 0 01-3.446.928zm0-2.522c.804 0 1.512-.189 2.125-.565.613-.39 1.091-.942 1.436-1.655.345-.713.517-1.54.517-2.482 0-.941-.172-1.762-.517-2.461-.345-.713-.823-1.258-1.436-1.634-.613-.377-1.321-.565-2.125-.565-.805 0-1.52.188-2.145.565-.613.376-1.091.921-1.436 1.634-.345.7-.517 1.52-.517 2.461 0 .942.172 1.77.517 2.482.345.713.823 1.265 1.436 1.655.626.376 1.34.565 2.145.565zm11.51-12.55v14.93h-2.68V6.888h2.68zm1.959 9.302c0-1.13.21-2.133.632-3.007.434-.874 1.021-1.547 1.761-2.018a4.508 4.508 0 012.47-.706c.69 0 1.347.161 1.973.484.625.31 1.123.727 1.493 1.251V6.888h2.719v14.93h-2.719v-1.654a3.71 3.71 0 01-1.398 1.332c-.6.336-1.295.504-2.087.504-.893 0-1.71-.242-2.45-.726-.74-.485-1.328-1.164-1.762-2.038-.421-.888-.632-1.904-.632-3.047zm8.348.04c0-.687-.127-1.272-.383-1.756-.255-.498-.6-.874-1.034-1.13a2.606 2.606 0 00-1.398-.403c-.497 0-.957.127-1.378.383-.421.256-.766.632-1.034 1.13-.255.484-.383 1.063-.383 1.735 0 .673.128 1.265.383 1.776.268.497.613.88 1.034 1.15.434.269.894.403 1.379.403.497 0 .963-.128 1.397-.383a2.872 2.872 0 001.034-1.13c.255-.498.383-1.09.383-1.775zm14.495 5.73c-.932 0-1.775-.169-2.528-.505a4.184 4.184 0 01-1.761-1.452c-.434-.633-.658-1.38-.67-2.24h2.872c.038.578.23 1.036.574 1.372.358.336.843.504 1.455.504.626 0 1.117-.154 1.475-.464.357-.323.536-.74.536-1.25 0-.418-.122-.76-.364-1.03a2.426 2.426 0 00-.92-.625c-.357-.162-.854-.336-1.493-.525-.868-.269-1.576-.531-2.125-.787a3.984 3.984 0 01-1.398-1.19c-.383-.538-.574-1.251-.574-2.139 0-.834.198-1.56.594-2.179.395-.619.95-1.09 1.665-1.412.715-.336 1.532-.505 2.451-.505 1.379 0 2.496.357 3.35 1.07.869.7 1.347 1.681 1.437 2.946h-2.949a1.599 1.599 0 00-.593-1.19c-.358-.324-.836-.485-1.436-.485-.524 0-.945.141-1.264.424-.306.282-.46.692-.46 1.23 0 .377.115.693.345.949.243.242.536.444.88.605.358.148.856.323 1.494.525.868.269 1.577.538 2.126.807a3.863 3.863 0 011.416 1.21c.396.538.594 1.244.594 2.119 0 .753-.185 1.453-.555 2.098-.37.646-.913 1.164-1.628 1.554-.715.376-1.563.565-2.546.565zm6.363-5.77c0-1.13.211-2.133.632-3.007.434-.874 1.015-1.547 1.743-2.018a4.508 4.508 0 012.47-.706c.791 0 1.48.168 2.068.504.6.337 1.078.76 1.436 1.272V10.64h2.7v11.177h-2.7v-1.634c-.345.525-.824.962-1.436 1.312-.6.336-1.296.504-2.087.504-.894 0-1.71-.242-2.451-.726-.728-.485-1.308-1.164-1.743-2.038-.42-.888-.631-1.904-.631-3.047zm8.349.04c0-.687-.128-1.272-.383-1.756-.255-.498-.6-.874-1.034-1.13a2.606 2.606 0 00-1.398-.403c-.498 0-.957.127-1.378.383-.422.256-.766.632-1.034 1.13-.256.484-.383 1.063-.383 1.735 0 .673.127 1.265.383 1.776.268.497.612.88 1.034 1.15.434.269.893.403 1.378.403.498 0 .964-.128 1.398-.383a2.872 2.872 0 001.034-1.13c.255-.498.383-1.09.383-1.775zm6.677-6.921c-.472 0-.868-.155-1.187-.464a1.664 1.664 0 01-.46-1.19c0-.471.153-.861.46-1.17A1.599 1.599 0 01100.556 6c.472 0 .862.161 1.168.484.319.31.479.7.479 1.17 0 .471-.16.868-.479 1.19-.306.31-.696.465-1.168.465zm1.321 1.332v11.177h-2.68V10.641h2.68zm5.329-3.753v14.93h-2.68V6.888h2.68zM114.565 22c-1.022 0-1.941-.235-2.758-.706a5.173 5.173 0 01-1.933-2.038c-.46-.874-.69-1.883-.69-3.026 0-1.144.237-2.153.709-3.027.485-.874 1.142-1.547 1.972-2.018.83-.484 1.755-.726 2.776-.726s1.947.242 2.777.726a5 5 0 011.953 2.018c.485.874.727 1.883.727 3.027 0 1.143-.249 2.152-.747 3.026a5.216 5.216 0 01-1.991 2.038c-.83.47-1.761.706-2.795.706zm0-2.462c.485 0 .938-.12 1.359-.363.434-.255.779-.632 1.034-1.13.255-.497.383-1.103.383-1.816 0-1.062-.268-1.876-.804-2.44-.524-.58-1.168-.868-1.934-.868s-1.411.289-1.934.867c-.51.565-.766 1.379-.766 2.442 0 1.062.249 1.883.747 2.461a2.475 2.475 0 001.915.848zm10.18-7.162a3.898 3.898 0 011.34-1.392c.562-.337 1.2-.505 1.915-.505v2.966h-.708c-.843 0-1.481.209-1.915.626-.421.417-.632 1.143-.632 2.179v5.568h-2.681V10.641h2.681v1.735z" fill="#F2F2F2"/></svg>